<svg width="512" height="512" xmlns="http://www.w3.org/2000/svg">
 <!--! Font Awesome Pro 6.1.1 by @fontawesome - https://fontawesome.com License - https://fontawesome.com/license (Commercial License) Copyright 2022 Fonticons, Inc. -->

 <g>
  <title>Layer 1</title>
  <path fill="#ff0000" stroke="#ff0000" d="m96,32.04l-64,0c-17.67,0 -32,14.32 -32,31.1l0,223.1c0,17.67 14.33,31.1 32,31.1l64,0c17.67,0 32,-14.33 32,-31.1l0,-222.21c0,-17.67 -14.3,-31.99 -32,-31.99zm371.3,208.16c7.8,-8.5 12.7,-19.8 12.7,-32.3c0,-23.47 -16.87,-42.92 -39.14,-47.09c4.44,-7.21 7.14,-15.71 7.14,-25.71c0,-21.32 -14,-39.18 -33.25,-45.43c0.75,-2.55 1.25,-6.06 1.25,-9.69c0,-26.51 -21.5,-47.98 -48,-47.98l-58.69,0c-34.61,0 -68.28,11.22 -95.97,31.98l-34.14,25.59c-12.1,9.06 -19.2,23.33 -19.2,37.53l0.1074,160c0,0 -0.0234,-0.0234 0,0c0.0703,13.99 6.123,27.94 17.91,37.36l16.3,13.03c81.8826,66.41 45.0826,142.51 108.1826,142.51c30.96,0 49.47,-24.52 49.47,-48.11c0,-15.15 -11.76,-58.12 -34.52,-96.02l146.55,0c26.52,0 48,-21.47 48,-47.98c0,-25.39 -19.8,-45.99 -44.7,-47.69z" id="svg_1"/>
 </g>
</svg>