<svg width="512" height="512" xmlns="http://www.w3.org/2000/svg">
 <!--! Font Awesome Pro 6.1.1 by @fontawesome - https://fontawesome.com License - https://fontawesome.com/license (Commercial License) Copyright 2022 Fonticons, Inc. -->

 <g>
  <title>Layer 1</title>
  <path stroke="#007f00" fill="none" d="m128,447.1l0,-224c0,-17.67 -14.33,-31.1 -32,-31.1l-64,0c-17.67,0 -32,14.33 -32,31.1l0,223.1c0,17.67 14.33,31.1 32,31.1l64,0c17.7,1.8 32,-11.7 32,-30.2zm384,-223c0,-26.5 -21.48,-47.98 -48,-47.98l-146.5,0c22.77,-37.91 34.52,-80.88 34.52,-96.02c-0.02,-23.58 -18.52,-48.1 -49.52,-48.1c-63.13,0 -26.36,76.15 -108.2,141.6l-16.3,13c-11.8,9.5 -17.8,23.4 -17.9,37.4c-0.0234,0.0234 0,0 0,0l-0.1,160c0,15.1 7.113,29.33 19.2,38.39l34.14,25.59c27.66,20.82 61.36,32.02 95.96,32.02l58.7,0c26.52,0 48,-21.47 48,-47.98c0,-3.635 -0.4805,-7.143 -1.246,-10.55c19.246,-6.27 33.246,-24.07 33.246,-45.47c0,-9.148 -2.697,-17.61 -7.139,-24.88c22.239,-4.12 39.139,-23.62 39.139,-47.02c0,-12.5 -4.893,-23.78 -12.72,-32.32c24.92,-1.68 44.72,-22.28 44.72,-47.68z" id="svg_1"/>
 </g>
</svg>