<?xml version="1.0" encoding="UTF-8"?> <svg xmlns="http://www.w3.org/2000/svg" id="Layer_1" data-name="Layer 1" viewBox="0 0 1086.5 310.99"><defs><style>.cls-1{fill:#0dcbcb;}.cls-2{fill:#fff;}</style></defs><path class="cls-1" d="M349.62,240c.79,0,1.07.29,1.07,1.07v51.13a1.3,1.3,0,0,1-1.28,1.5,85.64,85.64,0,0,1-15.31,1.29c-14.44,0-17.59-4.08-17.59-20.1,0-15.87,3.15-20.16,16.38-20.16a78.22,78.22,0,0,1,9.15.43V241c0-.78.36-1.07,1.07-1.07Zm-15.37,22.24c-8,0-9.08,2.36-9.08,12.65,0,9.73.78,12.59,8.86,12.59a65.3,65.3,0,0,0,8-.57V262.19Z"></path><path class="cls-1" d="M369.43,243.74c0,3.15-1.79,4.93-5.15,4.93s-5.22-1.78-5.22-4.93,1.86-4.93,5.22-4.93S369.43,240.59,369.43,243.74ZM367.49,255a1,1,0,0,1,1.08,1.07v37.4a1,1,0,0,1-1.08,1.07H361a.94.94,0,0,1-1.07-1.07v-37.4A.94.94,0,0,1,361,255Z"></path><path class="cls-1" d="M408.18,266.41v24.88a1.81,1.81,0,0,1-1.43,2.07c-3.72,1.08-10,1.58-16.09,1.58-10,0-15.08-1.58-15.08-11.95,0-9.08,4.79-11.36,13.58-11.36h10.37v-3.72c0-4-2.36-5.72-8.08-5.72H379.72c-.86,0-1.07-.22-1.07-1.08v-4.36c0-.85.29-1,1-1.14a63.36,63.36,0,0,1,11.8-.93C404,254.68,408.18,258.68,408.18,266.41Zm-18.52,11.44c-3.79,0-5.5,1.21-5.5,4.79,0,4.07,1.93,5.07,7.22,5.07a38.79,38.79,0,0,0,8.15-.78v-9.08Z"></path><path class="cls-1" d="M424.7,239.88a1,1,0,0,1,1.07,1.07v52.56a1,1,0,0,1-1.07,1.07h-6.51a1,1,0,0,1-1.07-1.07V241a1,1,0,0,1,1.07-1.07Z"></path><path class="cls-1" d="M468.6,274.84c0,16.09-3.15,20.1-17.45,20.1s-17.37-4-17.37-20.1,3.07-20.16,17.37-20.16S468.6,258.68,468.6,274.84Zm-26.17,0c0,10.09,1.07,12.59,8.72,12.59s8.73-2.5,8.73-12.59-1.07-12.65-8.73-12.65S442.43,264.69,442.43,274.84Z"></path><path class="cls-1" d="M508.21,256a1.33,1.33,0,0,1,1.36,1.43v34.89c-.07,12.44-2.5,16.95-17,16.95a83.81,83.81,0,0,1-11.72-.79,1.09,1.09,0,0,1-1-1.14v-4.22c0-.79.35-1.08,1.07-1.08h11.15c7.15,0,8.87-1.71,8.87-7.36v-.36a54.09,54.09,0,0,1-9.15.65c-13.23,0-16.45-4.29-16.45-20.45,0-15.73,3.29-19.81,17.66-19.81A82.19,82.19,0,0,1,508.21,256Zm-15.51,6.22c-7.87,0-8.65,2.79-8.65,12.58,0,10.23,1.07,12.59,9.08,12.59a59.42,59.42,0,0,0,7.79-.43V262.19Z"></path><path class="cls-1" d="M551.4,255a.94.94,0,0,1,1.07,1.07v36.47c0,.93-.35,1-1.07,1.14a86,86,0,0,1-15.94,1.22c-13.23,0-17-2.08-17-17V256.11c0-.72.5-1.07,1.22-1.07h6.43c.72,0,1,.35,1,1.07v20.23c0,10.59,1.65,11.09,8.37,11.09h8.22V256.11a.94.94,0,0,1,1.07-1.07Z"></path><path class="cls-1" d="M594.23,274.06v2.14c0,1.36-.43,1.93-2.43,1.93H569.14c.21,7.58,1.93,9.3,8.86,9.3h12.23a1,1,0,0,1,1.07,1.07v4.43a1.08,1.08,0,0,1-1,1.22,88.71,88.71,0,0,1-12.8.79c-13.94,0-17.09-4-17.09-20.1s3.15-20.16,17.09-20.16C590.94,254.68,594.09,258.54,594.23,274.06Zm-25.09-2.15h16.37c-.07-7.72-1.64-9.72-8-9.72C570.85,262.19,569.21,264.19,569.14,271.91Z"></path><path class="cls-1" d="M622.26,255.47c.72.21,1.15.5,1.15,1.28v4.36c0,.79-.43,1.15-1.22,1.08h-6.51c-4.29,0-5.57.71-5.57,3.86v27.46a1,1,0,0,1-1.08,1.07h-6.5a.94.94,0,0,1-1.07-1.07V263.83c0-8.51,6.79-9.15,12.08-9.15A44.83,44.83,0,0,1,622.26,255.47Z"></path><path class="cls-1" d="M673.32,266.41v24.88a1.82,1.82,0,0,1-1.43,2.07c-3.72,1.08-10,1.58-16.09,1.58-10,0-15.09-1.58-15.09-11.95,0-9.08,4.79-11.36,13.59-11.36h10.36v-3.72c0-4-2.36-5.72-8.08-5.72H644.86c-.86,0-1.07-.22-1.07-1.08v-4.36c0-.85.28-1,1-1.14a63.32,63.32,0,0,1,11.79-.93C669.17,254.68,673.32,258.68,673.32,266.41ZM654.8,277.85c-3.79,0-5.51,1.21-5.51,4.79,0,4.07,1.93,5.07,7.22,5.07a38.73,38.73,0,0,0,8.15-.78v-9.08Z"></path><path class="cls-1" d="M714.93,255c.79,0,1,.21.86,1.14l-8.08,30.32c-1.93,7.51-2.5,8.44-10.51,8.44-7.44,0-8.08-.86-10.15-8.44l-8.37-30.32c-.14-.93.14-1.14.93-1.14h7.08c.57,0,.64.21.93,1.14l7.43,28.46c.72,2.5.93,2.86,2.15,2.86,1.5,0,1.79-.36,2.43-2.86l7.22-28.46c.22-.93.36-1.14.93-1.14Z"></path><path class="cls-1" d="M754.69,274.06v2.14c0,1.36-.43,1.93-2.43,1.93H729.59c.22,7.58,1.93,9.3,8.87,9.3h12.22a1,1,0,0,1,1.08,1.07v4.43a1.08,1.08,0,0,1-1,1.22,88.8,88.8,0,0,1-12.8.79c-14,0-17.09-4-17.09-20.1S724,254.68,738,254.68C751.4,254.68,754.54,258.54,754.69,274.06Zm-25.1-2.15H746c-.07-7.72-1.64-9.72-8-9.72C731.31,262.19,729.66,264.19,729.59,271.91Z"></path><path class="cls-1" d="M789.51,255.47a1.14,1.14,0,0,1,1.07,1.28v4.36c0,.72-.35,1.08-1.14,1.08H778.21c-7.65,0-8.65,2.5-8.65,12.58s1,12.66,8.65,12.66h11.23c.79,0,1.14.36,1.14,1.07v4.36a1.15,1.15,0,0,1-1.07,1.29,74.37,74.37,0,0,1-11.3.79c-14.51,0-17.37-4-17.37-20.17s2.86-20.09,17.37-20.09A73.1,73.1,0,0,1,789.51,255.47Z"></path><path class="cls-1" d="M820.61,239.88a1,1,0,0,1,1.08,1.07v52.56a1,1,0,0,1-1.08,1.07h-6.5a1,1,0,0,1-1.08-1.07V241a1,1,0,0,1,1.08-1.07Z"></path><path class="cls-1" d="M863.52,274.06v2.14c0,1.36-.43,1.93-2.44,1.93H838.42c.21,7.58,1.93,9.3,8.86,9.3h12.23a.94.94,0,0,1,1.07,1.07v4.43a1.08,1.08,0,0,1-1,1.22,88.71,88.71,0,0,1-12.8.79c-13.94,0-17.08-4-17.08-20.1s3.14-20.16,17.08-20.16C860.23,254.68,863.37,258.54,863.52,274.06Zm-25.1-2.15h16.37c-.07-7.72-1.64-9.72-8-9.72C840.13,262.19,838.49,264.19,838.42,271.91Z"></path><path class="cls-1" d="M918.07,255c.79,0,1,.21.86,1.14l-8.08,30.32c-1.93,7.51-2.5,8.44-10.51,8.44-7.43,0-8.08-.86-10.15-8.44l-8.37-30.32c-.14-.93.15-1.14.93-1.14h7.08c.57,0,.64.21.93,1.14l7.44,28.46c.71,2.5.93,2.86,2.14,2.86,1.5,0,1.79-.36,2.43-2.86L910,256.18c.22-.93.36-1.14.93-1.14Z"></path><path class="cls-1" d="M934.81,243.74c0,3.15-1.79,4.93-5.15,4.93s-5.22-1.78-5.22-4.93,1.86-4.93,5.22-4.93S934.81,240.59,934.81,243.74ZM932.88,255a.94.94,0,0,1,1.07,1.07v37.4a1,1,0,0,1-1.07,1.07h-6.51a.94.94,0,0,1-1.07-1.07v-37.4a.94.94,0,0,1,1.07-1.07Z"></path><path class="cls-1" d="M976.35,255c.79,0,1,.21.86,1.14l-8.08,30.32c-1.93,7.51-2.5,8.44-10.51,8.44-7.44,0-8.08-.86-10.16-8.44l-8.36-30.32c-.15-.93.14-1.14.93-1.14h7.08c.57,0,.64.21.93,1.14l7.43,28.46c.72,2.5.93,2.86,2.15,2.86,1.5,0,1.79-.36,2.43-2.86l7.22-28.46c.21-.93.36-1.14.93-1.14Z"></path><path class="cls-1" d="M1013,266.41v24.88a1.81,1.81,0,0,1-1.43,2.07c-3.72,1.08-10,1.58-16.09,1.58-10,0-15.08-1.58-15.08-11.95,0-9.08,4.79-11.36,13.58-11.36h10.37v-3.72c0-4-2.36-5.72-8.08-5.72H984.5c-.86,0-1.07-.22-1.07-1.08v-4.36c0-.85.29-1,1-1.14a63.36,63.36,0,0,1,11.8-.93C1008.81,254.68,1013,258.68,1013,266.41Zm-18.52,11.44c-3.79,0-5.5,1.21-5.5,4.79,0,4.07,1.93,5.07,7.22,5.07a38.73,38.73,0,0,0,8.15-.78v-9.08Z"></path><path class="cls-1" d="M1055.72,271.63v21.88a1,1,0,0,1-1.14,1.07h-6.44a1,1,0,0,1-1.07-1.07V273.2c0-10.58-1.65-11-8.37-11h-8.22v31.32a1,1,0,0,1-1.07,1.07h-6.58c-.72,0-1-.36-1-1.07V257c0-.93.36-1,1-1.15a85.81,85.81,0,0,1,16-1.14C1052.07,254.68,1055.72,256.68,1055.72,271.63Z"></path><path class="cls-1" d="M1074.17,244.1c.78-.22,1.21.21,1.21,1v10h7.08a1,1,0,0,1,1.15,1.07v4.51a1,1,0,0,1-1.15,1.14h-7.08v21.81c0,3.14.93,3.79,4.44,3.79H1083c.86,0,1.22.28,1.22,1v4.72a1.16,1.16,0,0,1-1.07,1.29,33.26,33.26,0,0,1-5.08.5c-5.58,0-11.37-.15-11.37-8.73V261.83h-4.07a1,1,0,0,1-1.15-1.14v-4.51a1,1,0,0,1,1.15-1.07h4.07v-8.22c0-.72.36-1,1-1.15Z"></path><path class="cls-2" d="M119.77,60.66c2.51.28,3.62,1.39,3.62,4.18V197.93c0,53.29-11.16,67.52-61.94,67.52-10.32,0-24.27-.56-37.66-1.95a3.54,3.54,0,0,1-3.35-3.91v-8.65q0-3.34,3.35-3.35H61.45c34.32,0,41.86-8.65,41.86-36.83v-1.95c-13.12,1.67-24.28,1.95-38.23,1.95-53.57,0-63.33-14.78-63.33-76.44C1.75,72.1,11.79,57,63.13,57A418.09,418.09,0,0,1,119.77,60.66ZM63.13,74.89c-36.55,0-41,11.44-41,59.15,0,47.15,4.47,58.87,43,58.87a353.22,353.22,0,0,0,38.23-2V74.89Z"></path><path class="cls-2" d="M280.19,128.74v8.09c0,4.74-.84,7-8.65,7H180.3c.84,38.78,7.82,49.11,40.46,49.11h43.81c2.23,0,3.62,1.11,3.62,3.62v8.65a3.44,3.44,0,0,1-3.35,3.63c-13.11,1.4-29.85,1.95-44.08,1.95-50.5,0-60.82-15.34-60.82-77S170.26,57,220.76,57C268.47,57,279.63,71.26,280.19,128.74Zm-99.89-3.07h79.52c-.56-41.3-7-50.78-39.06-50.78C187,74.89,180.86,84.93,180.3,125.67Z"></path><path class="cls-2" d="M435.59,120.64v85.1c0,2.51-1.67,3.63-4.18,3.63H418.85c-2.51,0-3.63-1.12-3.63-3.63v-85.1c0-43.24-10.6-45.75-38.22-45.75H333.75V205.74c0,2.51-1.11,3.63-3.34,3.63H317.29c-2.51,0-3.62-1.12-3.62-3.63V64.56c0-2.79,1.11-3.34,3.62-3.62C339.06,57,360.54,57,373.65,57,419.69,57,435.59,62.89,435.59,120.64Z"></path><path class="cls-2" d="M595.45,133.76c0,61.66-10.6,77-62.21,77-51.34,0-61.94-15.34-61.94-77C471.3,72.38,481.9,57,533.24,57,584.85,57,595.45,72.38,595.45,133.76Zm-104.06,0c0,47.15,5.58,59.15,41.85,59.15,36.55,0,42.13-12,42.13-59.15s-5.58-58.87-42.13-58.87C497,74.89,491.39,86.61,491.39,133.76Z"></path><path class="cls-2" d="M745.55.67c2.52,0,3.63,1.4,3.63,3.63V202.11c0,2.79-1.11,3.91-3.91,4.19-25.66,3.91-37.38,4.46-56.63,4.46-51.62,0-61.39-15.06-61.39-77C627.25,72.1,637,57,690.59,57a359.46,359.46,0,0,1,38.5,1.68V4.3c0-2.23,1.12-3.63,3.35-3.63Zm-55,74.22c-38.5,0-43,11.44-43,58.59,0,47.71,4.47,59.43,41,59.43a312.07,312.07,0,0,0,40.45-2.79V74.89Z"></path><path class="cls-2" d="M813.91,15.74c0,8.65-4.47,13.39-12.84,13.39-8.65,0-13.39-4.74-13.39-13.39,0-8.37,4.74-12.84,13.39-12.84C809.44,2.9,813.91,7.37,813.91,15.74Zm-6.42,42.69a3.37,3.37,0,0,1,3.63,3.62V205.74c0,2.51-1.4,3.63-3.63,3.63H794.37c-2.51,0-3.62-1.12-3.62-3.63V62.05c0-2.23,1.11-3.62,3.62-3.62Z"></path><path class="cls-2" d="M951.17,59a3.44,3.44,0,0,1,3.35,3.63v8.65c0,2.51-1.39,3.63-3.63,3.63h-41c-36.27,0-41.85,11.72-41.85,58.87s5.58,59.15,41.85,59.15h41c2.24,0,3.63,1.11,3.63,3.62v8.65a3.44,3.44,0,0,1-3.35,3.63c-13.11,1.4-30.69,1.95-41.29,1.95-51.34,0-61.94-15.34-61.94-77,0-61.38,10.6-76.73,61.94-76.73C920.48,57,938.06,57.31,951.17,59Z"></path><path class="cls-2" d="M1075.05,59a3.44,3.44,0,0,1,3.34,3.63v8.65c0,2.51-1.11,3.63-3.62,3.63H1024c-12.56,0-24.28,3.9-24.28,16.74v4.46c0,9.49,3.63,16.46,18.7,22.6l39.34,15.9c24.27,9.77,26.5,22.88,26.5,37.39v3.35c0,29.57-16.18,35.43-54.68,35.43-20.09,0-44.08-1.67-48.55-2.23-2.79-.28-3.35-1.67-3.35-3.35v-8.65c0-2.51,1.12-3.62,3.35-3.62h49.11c25.94,0,34-3.35,34-17.58V171.7c0-9.2-3.34-15.34-16.74-20.92L1005.57,134c-21.2-8.65-25.94-23.16-25.94-38.23V89.67c0-30.13,27.62-32.64,52.17-32.64C1042.68,57,1060.54,57.31,1075.05,59Z"></path></svg> 